<svg width="45" height="45" viewBox="0 0 45 45" fill="none" xmlns="http://www.w3.org/2000/svg">
<rect width="45" height="45" rx="3" fill="white"/>
<g clip-path="url(#clip0_1_11695)">
<path d="M32.6287 19.6992L26.9217 18.8672L24.3709 13.6953C23.9138 12.7734 22.5896 12.7617 22.1287 13.6953L19.5779 18.8672L13.8709 19.6992C12.8474 19.8477 12.4373 21.1094 13.1795 21.832L17.3084 25.8555L16.3318 31.5391C16.156 32.5664 17.2381 33.3359 18.1443 32.8555L23.2498 30.1719L28.3552 32.8555C29.2615 33.332 30.3435 32.5664 30.1677 31.5391L29.1912 25.8555L33.3201 21.832C34.0623 21.1094 33.6521 19.8477 32.6287 19.6992ZM27.1795 25.1992L28.1052 30.6055L23.2498 28.0547L18.3943 30.6055L19.3201 25.1992L15.3904 21.3711L20.8201 20.582L23.2498 15.6602L25.6795 20.582L31.1092 21.3711L27.1795 25.1992Z" fill="black"/>
</g>
<defs>
<clipPath id="clip0_1_11695">
<rect width="22.5" height="20" fill="white" transform="translate(12 13)"/>
</clipPath>
</defs>
</svg>
