<svg width="24" height="24" viewBox="0 0 24 24" fill="none" xmlns="http://www.w3.org/2000/svg">
<g clip-path="url(#clip0_53_684)">
<path d="M15.25 13.875C14.1289 13.875 13.5898 14.5 11.75 14.5C9.91016 14.5 9.375 13.875 8.25 13.875C5.35156 13.875 3 16.2266 3 19.125V20.125C3 21.1602 3.83984 22 4.875 22H18.625C19.6602 22 20.5 21.1602 20.5 20.125V19.125C20.5 16.2266 18.1484 13.875 15.25 13.875ZM18.625 20.125H4.875V19.125C4.875 17.2656 6.39062 15.75 8.25 15.75C8.82031 15.75 9.74609 16.375 11.75 16.375C13.7695 16.375 14.6758 15.75 15.25 15.75C17.1094 15.75 18.625 17.2656 18.625 19.125V20.125ZM11.75 13.25C14.8555 13.25 17.375 10.7305 17.375 7.625C17.375 4.51953 14.8555 2 11.75 2C8.64453 2 6.125 4.51953 6.125 7.625C6.125 10.7305 8.64453 13.25 11.75 13.25ZM11.75 3.875C13.8164 3.875 15.5 5.55859 15.5 7.625C15.5 9.69141 13.8164 11.375 11.75 11.375C9.68359 11.375 8 9.69141 8 7.625C8 5.55859 9.68359 3.875 11.75 3.875Z" fill="#666666" stroke="#666666" stroke-width="0.0390625"/>
</g>
<defs>
<clipPath id="clip0_53_684">
<rect width="17.5" height="20" fill="white" transform="translate(3 2)"/>
</clipPath>
</defs>
</svg>
