<svg width="23" height="20" viewBox="0 0 23 20" fill="none" xmlns="http://www.w3.org/2000/svg">
<g clip-path="url(#clip0_53_686)">
<path d="M16.25 5C16.25 2.24297 14.007 0 11.25 0C8.49297 0 6.25 2.24297 6.25 5H2.5V16.875C2.5 18.6009 3.8991 20 5.625 20H16.875C18.6009 20 20 18.6009 20 16.875V5H16.25ZM11.25 1.875C12.9731 1.875 14.375 3.27688 14.375 5H8.125C8.125 3.27688 9.52688 1.875 11.25 1.875ZM18.125 16.875C18.125 17.5643 17.5643 18.125 16.875 18.125H5.625C4.93574 18.125 4.375 17.5643 4.375 16.875V6.875H6.25V8.4375C6.25 8.95527 6.66973 9.375 7.1875 9.375C7.70527 9.375 8.125 8.95527 8.125 8.4375V6.875H14.375V8.4375C14.375 8.95527 14.7947 9.375 15.3125 9.375C15.8303 9.375 16.25 8.95527 16.25 8.4375V6.875H18.125V16.875Z" fill="#666666"/>
</g>
<defs>
<clipPath id="clip0_53_686">
<rect width="22.5" height="20" fill="white"/>
</clipPath>
</defs>
</svg>
