<svg width="23" height="20" viewBox="0 0 23 20" fill="none" xmlns="http://www.w3.org/2000/svg">
<g clip-path="url(#clip0_53_687)">
<path d="M20.6289 6.69923L14.9219 5.86719L12.3711 0.695319C11.9141 -0.226556 10.5899 -0.238274 10.1289 0.695319L7.57814 5.86719L1.87111 6.69923C0.847675 6.84766 0.437519 8.10938 1.17971 8.83204L5.30861 12.8555L4.33205 18.5391C4.15627 19.5664 5.2383 20.3359 6.14455 19.8555L11.25 17.1719L16.3555 19.8555C17.2617 20.332 18.3438 19.5664 18.168 18.5391L17.1914 12.8555L21.3203 8.83204C22.0625 8.10938 21.6524 6.84766 20.6289 6.69923ZM15.1797 12.1992L16.1055 17.6055L11.25 15.0547L6.39455 17.6055L7.32033 12.1992L3.39064 8.3711L8.82033 7.58204L11.25 2.66016L13.6797 7.58204L19.1094 8.3711L15.1797 12.1992Z" fill="#666666"/>
</g>
<defs>
<clipPath id="clip0_53_687">
<rect width="22.5" height="20" fill="white"/>
</clipPath>
</defs>
</svg>
