<svg width="78" height="78" viewBox="0 0 78 78" fill="none" xmlns="http://www.w3.org/2000/svg">
<path opacity="0.4" d="M78 39C78 60.5397 60.5397 78 39 78C17.4603 78 0 60.5397 0 39C0 17.4642 17.4603 0 39 0C60.5397 0 78 17.4642 78 39Z" fill="#92ABF0"/>
<path d="M54.0527 26.1488L47.7347 46.1168C47.5007 46.9358 46.8377 47.5988 46.0187 47.8367L26.1287 54.0728C24.8027 54.5057 23.5157 53.2148 23.9447 51.8888L30.1847 31.8818C30.4187 31.0628 31.0817 30.4388 31.9007 30.1658L51.8687 23.9258C53.2337 23.4968 54.4817 24.7838 54.0527 26.1488Z" fill="#92ABF0"/>
</svg>
