<svg width="78" height="78" viewBox="0 0 78 78" fill="none" xmlns="http://www.w3.org/2000/svg">
<g clip-path="url(#clip0_1_3958)">
<path opacity="0.4" d="M42.8076 4.39309L51.4908 21.8428C52.1306 23.107 53.3515 23.985 54.7597 24.1801L74.2639 27.0207C75.403 27.1807 76.4367 27.7816 77.1349 28.6986C77.8254 29.6038 78.1219 30.751 77.9541 31.8787C77.8176 32.8151 77.3768 33.6814 76.702 34.3447L62.5692 48.0446C61.5355 49.0006 61.0674 50.417 61.3171 51.8022L64.7966 71.0624C65.1672 73.388 63.6263 75.5809 61.3171 76.0218C60.3652 76.174 59.39 76.014 58.5319 75.577L41.1341 66.5127C39.8429 65.861 38.3177 65.861 37.0265 66.5127L19.6288 75.577C17.4911 76.7125 14.8425 75.9399 13.6527 73.8328C13.2119 72.9939 13.0559 72.0379 13.2002 71.1053L16.6798 51.8412C16.9294 50.4599 16.4574 49.0357 15.4276 48.0797L1.29487 34.3876C-0.386396 32.7644 -0.437107 30.0916 1.18174 28.4098C1.21685 28.3747 1.25586 28.3357 1.29487 28.2966C1.96581 27.6138 2.8474 27.1807 3.7992 27.0675L23.3034 24.223C24.7077 24.024 25.9287 23.1538 26.5723 21.8818L34.9435 4.39309C35.6885 2.89473 37.2333 1.96216 38.9106 2.00118H39.4333C40.8884 2.17677 42.1561 3.07813 42.8076 4.39309Z" fill="#92ABF0"/>
<path d="M38.9688 66.0267C38.2134 66.0502 37.4775 66.2531 36.8155 66.6161L19.5028 75.6599C17.3845 76.6708 14.8495 75.8862 13.6618 73.8605C13.2218 73.033 13.0622 72.0845 13.2101 71.1556L16.668 51.9323C16.9016 50.535 16.4344 49.1142 15.418 48.1306L1.27896 34.4421C-0.399353 32.7988 -0.430505 30.1017 1.21276 28.4194C1.23612 28.396 1.25559 28.3765 1.27896 28.357C1.94872 27.6934 2.81319 27.2563 3.74385 27.1197L23.2644 24.2469C24.6779 24.0674 25.9045 23.1852 26.5276 21.905L35.0126 4.19616C35.8186 2.76759 37.3645 1.91669 39 2.00647C38.9688 3.16572 38.9688 65.2383 38.9688 66.0267Z" fill="#92ABF0"/>
</g>
<defs>
<clipPath id="clip0_1_3958">
<rect width="78" height="78" fill="white"/>
</clipPath>
</defs>
</svg>
