<svg width="19" height="17" viewBox="0 0 19 17" fill="none" xmlns="http://www.w3.org/2000/svg">
<path fill-rule="evenodd" clip-rule="evenodd" d="M15.9091 15.2227C15.886 15.4865 15.7859 15.737 15.6229 15.9424C15.4611 16.1465 15.2429 16.2963 14.9965 16.3719C14.75 16.4474 14.4881 16.4448 14.2443 16.3653C13.9991 16.2857 13.7834 16.132 13.6243 15.9239C12.2251 14.7747 10.0429 13.1205 10.0429 13.1205C10.0429 13.1205 8.464 15.9928 8.1816 16.2871C8.08789 16.3679 7.98009 16.4289 7.86328 16.4633C7.74518 16.4991 7.62323 16.5084 7.50257 16.4925C7.38062 16.4753 7.2651 16.4329 7.16113 16.3666C7.05715 16.3016 6.96728 16.2141 6.89796 16.1107C6.88384 16.0657 6.8659 16.0206 6.84664 15.9782L7.73232 11.4026L14.0478 4.99663L5.43463 10.0719C5.43463 10.0719 1.54519 8.87101 0.967557 8.6364C0.818655 8.55289 0.695425 8.42695 0.613272 8.27319C0.531119 8.11944 0.491319 7.9458 0.501588 7.77084C0.510574 7.59588 0.568365 7.42754 0.665921 7.28438C0.764761 7.14123 0.900818 7.02989 1.05742 6.96361C1.87895 6.53151 16.3712 0.816054 16.859 0.668926C17.3468 0.521798 18.6304 0.138732 18.4892 1.42842C18.348 2.71811 16.0503 14.5149 15.9091 15.2227Z" fill="#2AA1DA"/>
</svg>
