<svg width="20" height="21" viewBox="0 0 20 21" fill="none" xmlns="http://www.w3.org/2000/svg">
<path fill-rule="evenodd" clip-rule="evenodd" d="M10.0005 20.5C8.11504 20.4946 6.26963 19.9536 4.68023 18.9371L0 20.5L1.56009 15.81C0.385369 13.9306 -0.133346 11.7131 0.085331 9.50775C0.305341 7.30102 1.25205 5.22921 2.77478 3.62091C4.29752 2.01128 6.31094 0.954681 8.49904 0.616725C10.6871 0.27877 12.9246 0.679503 14.8607 1.75615C16.7954 2.83146 18.3195 4.52124 19.1915 6.55833C20.0649 8.59675 20.2356 10.8676 19.6796 13.0142C19.1235 15.1608 17.8702 17.0603 16.1181 18.4162C14.366 19.7706 12.2139 20.504 10.0005 20.5ZM12.1739 11.999C12.8393 12.2167 13.5153 12.397 14.2006 12.54C14.2726 12.5507 14.342 12.5761 14.4033 12.6135C14.466 12.6522 14.5206 12.7016 14.562 12.7617C14.6047 12.8205 14.634 12.8873 14.65 12.9595C14.666 13.0302 14.6673 13.1037 14.654 13.1758V13.5538C14.6607 13.6914 14.6353 13.8277 14.5793 13.9533C14.5246 14.0788 14.4393 14.1911 14.334 14.2779C14.006 14.6118 13.6166 14.8803 13.1873 15.0686C12.5539 15.1434 11.9125 15.0887 11.3032 14.9044C10.6925 14.72 10.1271 14.4128 9.64045 14C9.01376 13.5792 8.4284 13.0983 7.89371 12.564C7.36169 12.0257 6.87897 11.4393 6.45362 10.8128C6.0456 10.3252 5.74027 9.75888 5.55893 9.14842C5.37892 8.5393 5.32423 7.89812 5.40023 7.26629C5.58824 6.83884 5.85495 6.45146 6.18697 6.12285C6.27097 6.01465 6.38163 5.92916 6.50697 5.87439C6.63231 5.81962 6.77096 5.79559 6.90697 5.80762H7.29367C7.43901 5.78758 7.58703 5.8263 7.70437 5.91446C7.82304 6.00396 7.90036 6.13622 7.92036 6.28182C8.12037 7.07261 8.26705 7.64432 8.46706 8.2855C8.54706 8.55266 8.45371 8.61678 8.24037 8.77707C8.10703 8.87993 8.00038 8.95474 7.89371 9.03489C7.83237 9.06161 7.77636 9.10167 7.73102 9.15109C7.68569 9.20052 7.65099 9.25929 7.62966 9.32341C7.60833 9.38752 7.60033 9.45565 7.60699 9.52244C7.61366 9.58923 7.63368 9.65469 7.66702 9.71347C8.00703 10.3693 8.44305 10.9718 8.96041 11.5008C9.4871 12.019 10.0898 12.4545 10.7472 12.7925C10.8058 12.8245 10.8712 12.8459 10.9378 12.8512C11.0045 12.8579 11.0725 12.8499 11.1365 12.8285C11.2005 12.8071 11.2592 12.7738 11.3098 12.7284C11.3592 12.6829 11.3992 12.6282 11.4272 12.5667C11.5072 12.4585 11.5739 12.3583 11.6805 12.2181C11.6979 12.17 11.7232 12.1259 11.7579 12.0885C11.7912 12.0511 11.8325 12.0204 11.8792 11.999C11.9245 11.9776 11.9752 11.9656 12.0259 11.9643C12.0766 11.9629 12.1272 11.9709 12.1739 11.9897V11.999Z" fill="#65BC54"/>
</svg>
