<svg width="101" height="101" viewBox="0 0 101 101" fill="none" xmlns="http://www.w3.org/2000/svg">
<path d="M75.7504 42.0835H70.4479C68.8734 35.9856 65.6201 30.4516 61.0576 26.1103C56.4951 21.769 50.8064 18.7945 44.6378 17.5248C38.4693 16.2551 32.0683 16.7411 26.1621 18.9275C20.256 21.114 15.0815 24.9132 11.2268 29.8936C7.37197 34.8739 4.99143 40.8356 4.35562 47.1013C3.71981 53.367 4.85424 59.6854 7.62999 65.3386C10.4057 70.9918 14.7115 75.753 20.0581 79.0813C25.4046 82.4096 31.5775 84.1715 37.8754 84.1668H75.7504C81.331 84.1668 86.683 81.9499 90.6291 78.0039C94.5752 74.0578 96.7921 68.7058 96.7921 63.1252C96.7921 57.5446 94.5752 52.1925 90.6291 48.2465C86.683 44.3004 81.331 42.0835 75.7504 42.0835Z" stroke="#25282B" stroke-width="5" stroke-linecap="round" stroke-linejoin="round"/>
</svg>
