<svg width="45" height="44" viewBox="0 0 45 44" fill="none" xmlns="http://www.w3.org/2000/svg">
<g clip-path="url(#clip0_1_6134)">
<path fill-rule="evenodd" clip-rule="evenodd" d="M25.2785 8.6852C25.2785 12.757 28.5842 16.0579 32.6619 16.0579C33.111 16.0557 33.5588 16.0126 34 15.9291V30.5457C34 36.695 30.3727 40.333 24.2145 40.333H10.8017C4.62726 40.333 1 36.695 1 30.5457V17.1525C1 11.0033 4.62726 7.33301 10.8017 7.33301H25.4074C25.3208 7.77852 25.2776 8.23137 25.2785 8.6852ZM21.442 27.3101L26.6814 20.5491V20.5169C27.1299 19.9142 27.0155 19.0643 26.4235 18.6013C26.1369 18.3801 25.7728 18.2844 25.4143 18.3359C25.0558 18.3875 24.7336 18.582 24.5212 18.875L20.104 24.5574L15.0742 20.5974C14.787 20.3737 14.4217 20.2749 14.0607 20.3234C13.6998 20.3718 13.3736 20.5635 13.1558 20.855L7.73906 27.8413C7.54867 28.0786 7.44616 28.3743 7.44888 28.6784C7.41745 29.2929 7.80552 29.8512 8.39311 30.0367C8.9807 30.2221 9.61961 29.9881 9.94766 29.4672L14.4777 23.6077L19.5075 27.5516C19.7936 27.7822 20.1613 27.8868 20.5261 27.8412C20.891 27.7957 21.2216 27.604 21.442 27.3101Z" fill="black"/>
<circle opacity="0.4" cx="33.0832" cy="8.24935" r="4.58333" fill="black"/>
</g>
<defs>
<clipPath id="clip0_1_6134">
<rect width="44" height="44" fill="white" transform="translate(0.5)"/>
</clipPath>
</defs>
</svg>
