<svg width="44" height="44" viewBox="0 0 44 44" fill="none" xmlns="http://www.w3.org/2000/svg">
<path opacity="0.4" d="M14.8196 29.7559H2.76449C1.23876 29.7559 0.000244141 30.9727 0.000244141 32.4716C0.000244141 33.9686 1.23876 35.1874 2.76449 35.1874H14.8196C16.3453 35.1874 17.5839 33.9686 17.5839 32.4716C17.5839 30.9727 16.3453 29.7559 14.8196 29.7559Z" fill="black"/>
<path opacity="0.4" d="M36.6678 12.1942C36.6678 10.6973 35.4292 9.48047 33.9055 9.48047H21.8504C20.3247 9.48047 19.0862 10.6973 19.0862 12.1942C19.0862 13.6932 20.3247 14.91 21.8504 14.91H33.9055C35.4292 14.91 36.6678 13.6932 36.6678 12.1942Z" fill="black"/>
<path d="M12.6094 12.194C12.6094 15.6163 9.78815 18.3901 6.30484 18.3901C2.82356 18.3901 0.000244141 15.6163 0.000244141 12.194C0.000244141 8.7738 2.82356 6 6.30484 6C9.78815 6 12.6094 8.7738 12.6094 12.194Z" fill="black"/>
<path d="M36.6671 32.3982C36.6671 35.8184 33.8458 38.5922 30.3625 38.5922C26.8812 38.5922 24.0579 35.8184 24.0579 32.3982C24.0579 28.976 26.8812 26.2021 30.3625 26.2021C33.8458 26.2021 36.6671 28.976 36.6671 32.3982Z" fill="black"/>
</svg>
