<svg width="45" height="44" viewBox="0 0 45 44" fill="none" xmlns="http://www.w3.org/2000/svg">
<g clip-path="url(#clip0_1_6146)">
<path d="M29.0662 16.5378C28.2384 16.5378 27.142 16.5195 25.7769 16.5195C22.4476 16.5195 19.7102 13.764 19.7102 10.4035V4.50752C19.7102 4.04368 19.338 3.66602 18.8806 3.66602H9.18331C4.6578 3.66602 1 7.38035 1 11.9325V31.6867C1 36.4625 4.83207 40.3327 9.56089 40.3327H23.9997C28.5107 40.3327 32.1667 36.6422 32.1667 32.0863V17.3628C32.1667 16.8972 31.7963 16.5213 31.3353 16.5232C30.562 16.5287 29.6307 16.5378 29.0662 16.5378Z" fill="black"/>
<path d="M24.0706 4.70587C23.5224 4.1357 22.5654 4.52803 22.5654 5.3182V10.1527C22.5654 12.1804 24.2356 13.8487 26.2614 13.8487C27.5411 13.8634 29.3158 13.867 30.8228 13.8634C31.5946 13.8615 31.9869 12.9394 31.4516 12.382C29.5174 10.3709 26.0543 6.76653 24.0706 4.70587Z" fill="black"/>
<path d="M22.2761 23.6185C21.7426 24.1483 20.8791 24.152 20.3438 23.6148L17.4306 20.687V29.5365C17.4306 30.29 16.8183 30.9023 16.0648 30.9023C15.3113 30.9023 14.7008 30.29 14.7008 29.5365V20.687L11.7839 23.6148C11.2523 24.152 10.3869 24.1483 9.85342 23.6185C9.31992 23.0886 9.31809 22.2233 9.84976 21.688L15.0968 16.4171C15.0986 16.4153 15.0986 16.4153 15.0986 16.4153C15.2233 16.2906 15.3736 16.1898 15.5386 16.122C15.7036 16.0523 15.8833 16.0156 16.0648 16.0156C16.2481 16.0156 16.4278 16.0523 16.5928 16.122C16.7559 16.1898 16.9044 16.2906 17.0291 16.4135C17.0309 16.4153 17.0328 16.4153 17.0328 16.4171L22.2798 21.688C22.8114 22.2233 22.8114 23.0886 22.2761 23.6185Z" fill="white"/>
</g>
<defs>
<clipPath id="clip0_1_6146">
<rect width="44" height="44" fill="white" transform="translate(0.5)"/>
</clipPath>
</defs>
</svg>
