<svg width="44" height="44" viewBox="0 0 44 44" fill="none" xmlns="http://www.w3.org/2000/svg">
<path d="M24.1835 3.66602H8.81833C3.245 3.66602 0 6.92935 0 12.521V31.4593C0 37.1427 3.245 40.3327 8.81833 40.3327H24.1835C29.8467 40.3327 33 37.1427 33 31.4593V12.521C33 6.92935 29.8467 3.66602 24.1835 3.66602Z" fill="black"/>
<path fill-rule="evenodd" clip-rule="evenodd" d="M9.31298 12.1914V12.2097C8.52281 12.2097 7.88298 12.8514 7.88298 13.6397C7.88298 14.4281 8.52281 15.0697 9.31298 15.0697H14.7928C15.583 15.0697 16.2246 14.4281 16.2246 13.6196C16.2246 12.8331 15.583 12.1914 14.7928 12.1914H9.31298ZM23.6863 23.357H9.31298C8.52281 23.357 7.88298 22.7153 7.88298 21.927C7.88298 21.1386 8.52281 20.4951 9.31298 20.4951H23.6863C24.4746 20.4951 25.1163 21.1386 25.1163 21.927C25.1163 22.7153 24.4746 23.357 23.6863 23.357ZM23.6866 31.7343H9.31326C8.76326 31.8076 8.2316 31.5326 7.93826 31.0743C7.64493 30.5976 7.64493 29.9926 7.93826 29.5343C8.2316 29.0576 8.76326 28.801 9.31326 28.856H23.6866C24.4181 28.9293 24.9699 29.5526 24.9699 30.3043C24.9699 31.0358 24.4181 31.661 23.6866 31.7343Z" fill="white"/>
</svg>
