<svg width="45" height="44" viewBox="0 0 45 44" fill="none" xmlns="http://www.w3.org/2000/svg">
<g clip-path="url(#clip0_1_6193)">
<path fill-rule="evenodd" clip-rule="evenodd" d="M8.82613 15.9746H24.3405C28.6625 15.9746 32.1667 19.4015 32.1667 23.6281V32.679C32.1667 36.9057 28.6625 40.3326 24.3405 40.3326H8.82613C4.50415 40.3326 1 36.9057 1 32.679V23.6281C1 19.4015 4.50415 15.9746 8.82613 15.9746ZM16.5739 31.7708C17.4867 31.7708 18.2132 31.0603 18.2132 30.1676V26.1231C18.2132 25.2486 17.4867 24.5381 16.5739 24.5381C15.6797 24.5381 14.9531 25.2486 14.9531 26.1231V30.1676C14.9531 31.0603 15.6797 31.7708 16.5739 31.7708Z" fill="black"/>
<path opacity="0.4" d="M26.7089 13.5586V16.2549C26.0569 16.0727 25.3676 15.9816 24.6597 15.9816H23.4488V13.5586C23.4488 9.86026 20.375 6.85423 16.5933 6.85423C12.8115 6.85423 9.73773 9.84204 9.7191 13.5222V15.9816H8.52683C7.80029 15.9816 7.11101 16.0727 6.45898 16.2731V13.5586C6.47761 8.09308 11.0045 3.66602 16.556 3.66602C22.182 3.66602 26.7089 8.09308 26.7089 13.5586Z" fill="black"/>
</g>
<defs>
<clipPath id="clip0_1_6193">
<rect width="44" height="44" fill="white" transform="translate(0.5)"/>
</clipPath>
</defs>
</svg>
