<svg width="44" height="44" viewBox="0 0 44 44" fill="none" xmlns="http://www.w3.org/2000/svg">
<path d="M34.3383 26.3453C33.9823 25.7953 33.4765 25.2453 32.8207 24.897C32.2961 24.6403 31.9589 24.2187 31.6591 23.7237C30.7036 22.147 31.2656 20.0753 32.8582 19.1403C34.7318 18.0953 35.3313 15.767 34.2446 13.952L32.9893 11.7887C31.9214 9.97366 29.5794 9.33199 27.7246 10.3953C26.0758 11.2753 23.9586 10.6887 23.0031 9.13033C22.7033 8.61699 22.5347 8.06699 22.5722 7.51699C22.6284 6.80199 22.4036 6.12366 22.0663 5.57366C21.3731 4.43699 20.1178 3.66699 18.7313 3.66699H16.0896C14.7219 3.70366 13.4666 4.43699 12.7733 5.57366C12.4173 6.12366 12.2112 6.80199 12.2487 7.51699C12.2862 8.06699 12.1176 8.61699 11.8178 9.13033C10.8623 10.6887 8.74511 11.2753 7.11509 10.3953C5.2415 9.33199 2.91825 9.97366 1.83157 11.7887L0.576264 13.952C-0.491682 15.767 0.107867 18.0953 1.96272 19.1403C3.55527 20.0753 4.11735 22.147 3.18055 23.7237C2.86204 24.2187 2.5248 24.6403 2.00019 24.897C1.36317 25.2453 0.801095 25.7953 0.50132 26.3453C-0.191907 27.482 -0.154436 28.912 0.538792 30.1037L1.83157 32.3037C2.5248 33.477 3.81757 34.2103 5.16656 34.2103C5.80358 34.2103 6.55301 34.027 7.15256 33.6603C7.62096 33.3487 8.18303 33.2387 8.80132 33.2387C10.6562 33.2387 12.2112 34.7603 12.2487 36.5753C12.2487 38.6837 13.9724 40.3337 16.1458 40.3337H18.6939C20.8485 40.3337 22.5722 38.6837 22.5722 36.5753C22.6284 34.7603 24.1835 33.2387 26.0383 33.2387C26.6379 33.2387 27.2 33.3487 27.6871 33.6603C28.2866 34.027 29.0173 34.2103 29.6731 34.2103C31.0033 34.2103 32.2961 33.477 32.9893 32.3037L34.3009 30.1037C34.9753 28.8753 35.0316 27.482 34.3383 26.3453Z" fill="black"/>
<path d="M17.4389 27.1874C14.4974 27.1874 12.1179 24.8958 12.1179 22.0174C12.1179 19.1391 14.4974 16.8291 17.4389 16.8291C20.3804 16.8291 22.7037 19.1391 22.7037 22.0174C22.7037 24.8958 20.3804 27.1874 17.4389 27.1874Z" fill="white"/>
</svg>
