<svg width="37" height="37" viewBox="0 0 37 37" fill="none" xmlns="http://www.w3.org/2000/svg">
<g clip-path="url(#clip0_1_2158)">
<path d="M33.1901 14.576L30.2911 5.87917C29.9187 4.75625 28.8703 4 27.6844 4H9.64896C8.46302 4 7.41458 4.75625 7.04219 5.87917L4.14323 14.576C4.05156 14.8568 4 15.149 4 15.4469V30.5833C4 32.1016 5.23177 33.3333 6.75 33.3333H30.5833C32.1016 33.3333 33.3333 32.1016 33.3333 30.5833V15.4469C33.3333 15.149 33.2875 14.8568 33.1901 14.576ZM5.83333 15.4469C5.83333 15.3495 5.85052 15.2521 5.87917 15.1547L8.77812 6.45781C8.90417 6.08542 9.25365 5.83333 9.64896 5.83333H17.75V15.4583H5.83333V15.4469ZM31.5 30.5833C31.5 31.0875 31.0875 31.5 30.5833 31.5H6.75C6.24583 31.5 5.83333 31.0875 5.83333 30.5833V17.2917H31.5V30.5833ZM31.5 15.4583H19.5833V5.83333H27.6844C28.0797 5.83333 28.4292 6.08542 28.5552 6.45781L31.4542 15.1547C31.4828 15.2464 31.5 15.3438 31.5 15.4469V15.4583Z" fill="black" stroke="black" stroke-width="0.0572917"/>
</g>
<defs>
<clipPath id="clip0_1_2158">
<rect width="29.3333" height="29.3333" fill="white" transform="translate(4 4)"/>
</clipPath>
</defs>
</svg>
