<svg width="23" height="21" viewBox="0 0 23 21" fill="none" xmlns="http://www.w3.org/2000/svg">
<g clip-path="url(#clip0_1_2089)">
<path d="M22.2408 9.07592C20.0383 5.33834 15.9305 2.84033 11.2504 2.84033C6.56835 2.84033 2.46148 5.3401 0.259994 9.07592C0.0900132 9.36436 0.000366211 9.69305 0.000366211 10.0279C0.000366211 10.3627 0.0900132 10.6913 0.259994 10.9798C2.46253 14.7173 6.57031 17.2153 11.2504 17.2153C15.9324 17.2153 20.0393 14.7156 22.2408 10.9797C22.4108 10.6913 22.5004 10.3626 22.5004 10.0278C22.5004 9.69304 22.4108 9.36435 22.2408 9.07592ZM11.2504 15.3403C7.24429 15.3403 3.74683 13.2036 1.87538 10.0278C3.60027 7.10076 6.70652 5.05635 10.3192 4.75412C10.7019 5.14807 10.9379 5.68525 10.9379 6.27783C10.9379 7.48596 9.95851 8.46533 8.75038 8.46533C7.54226 8.46533 6.56288 7.48596 6.56288 6.27783L6.56292 6.27619C6.16421 7.0217 5.93788 7.8733 5.93788 8.77783C5.93788 11.7119 8.31636 14.0903 11.2504 14.0903C14.1844 14.0903 16.5629 11.7119 16.5629 8.77783C16.5629 7.56568 16.1566 6.44857 15.4732 5.55459C17.6451 6.459 19.4539 8.03979 20.6254 10.0278C18.754 13.2036 15.2565 15.3403 11.2504 15.3403Z" fill="#666666" stroke="#666666" stroke-width="0.0399306"/>
</g>
<defs>
<clipPath id="clip0_1_2089">
<rect width="22.5" height="20" fill="white" transform="translate(0.000366211 0.027832)"/>
</clipPath>
</defs>
</svg>
