<svg width="37" height="37" viewBox="0 0 37 37" fill="none" xmlns="http://www.w3.org/2000/svg">
<g clip-path="url(#clip0_1_2152)">
<path d="M16.0417 15.0002C16.2938 15.0002 16.5 14.7939 16.5 14.5418V13.6252C16.5 13.3731 16.2938 13.1668 16.0417 13.1668H2.29167C2.03958 13.1668 1.83333 13.3731 1.83333 13.6252V14.5418C1.83333 14.7939 2.03958 15.0002 2.29167 15.0002H16.0417ZM36.2083 26.0002H34.8333V19.8069C34.8333 18.8444 34.4438 17.8991 33.7563 17.2174L28.9495 12.4106C28.2734 11.7231 27.3281 11.3335 26.3599 11.3335H23.8333V8.50329C23.8333 7.03089 22.5615 5.8335 21.0031 5.8335H6.49688C4.93854 5.8335 3.66667 7.03089 3.66667 8.50329V9.50016H0.458333C0.20625 9.50016 0 9.70641 0 9.9585V10.8752C0 11.1272 0.20625 11.3335 0.458333 11.3335H14.2083C14.4604 11.3335 14.6667 11.1272 14.6667 10.8752V9.9585C14.6667 9.70641 14.4604 9.50016 14.2083 9.50016H5.5V8.50329C5.5 8.03923 5.94688 7.66683 6.49688 7.66683H21.0031C21.5531 7.66683 22 8.03923 22 8.50329V26.0002H11.8938C11.0573 24.8944 9.73958 24.1668 8.25 24.1668C7.21302 24.1668 6.26771 24.522 5.5 25.1064V20.5002H3.66667V28.7502C3.66667 31.2825 5.71771 33.3335 8.25 33.3335C10.7823 33.3335 12.8333 31.2825 12.8333 28.7502C12.8333 28.4351 12.799 28.1314 12.7417 27.8335H23.925C23.862 28.1314 23.8333 28.4351 23.8333 28.7502C23.8333 31.2825 25.8844 33.3335 28.4167 33.3335C30.949 33.3335 33 31.2825 33 28.7502C33 28.4351 32.9656 28.1314 32.9083 27.8335H36.2083C36.4604 27.8335 36.6667 27.6272 36.6667 27.3752V26.4585C36.6667 26.2064 36.4604 26.0002 36.2083 26.0002ZM8.25 31.5002C6.73177 31.5002 5.5 30.2684 5.5 28.7502C5.5 27.2319 6.73177 26.0002 8.25 26.0002C9.76823 26.0002 11 27.2319 11 28.7502C11 30.2684 9.76823 31.5002 8.25 31.5002ZM23.8333 13.1668H26.3599C26.8411 13.1668 27.3167 13.3616 27.6547 13.7054L32.4615 18.5121C32.5073 18.558 32.5245 18.621 32.5646 18.6726H23.8333V13.1668ZM28.4167 31.5002C26.8984 31.5002 25.6667 30.2684 25.6667 28.7502C25.6667 27.2319 26.8984 26.0002 28.4167 26.0002C29.9349 26.0002 31.1667 27.2319 31.1667 28.7502C31.1667 30.2684 29.9349 31.5002 28.4167 31.5002ZM33 26.0002H32.0604C31.224 24.8944 29.9062 24.1668 28.4167 24.1668C26.9271 24.1668 25.6094 24.8944 24.7729 26.0002H23.8333V20.5002H33V26.0002ZM14.6667 18.2085V17.2918C14.6667 17.0397 14.4604 16.8335 14.2083 16.8335H0.458333C0.20625 16.8335 0 17.0397 0 17.2918V18.2085C0 18.4606 0.20625 18.6668 0.458333 18.6668H14.2083C14.4604 18.6668 14.6667 18.4606 14.6667 18.2085Z" fill="black" stroke="black" stroke-width="0.0572917"/>
</g>
<defs>
<clipPath id="clip0_1_2152">
<rect width="36.6667" height="29.3333" fill="white" transform="translate(0 4)"/>
</clipPath>
</defs>
</svg>
