<svg width="80" height="80" viewBox="0 0 80 80" fill="none" xmlns="http://www.w3.org/2000/svg">
<g clip-path="url(#clip0_18_624)">
<path d="M72.5912 31.879L66.2509 12.8582C65.4365 10.4023 63.1434 8.74829 60.5497 8.74829H21.1047C18.511 8.74829 16.218 10.4023 15.4035 12.8582L9.06325 31.879C8.86277 32.493 8.75 33.132 8.75 33.7836V66.8882C8.75 70.2087 11.444 72.9027 14.7645 72.9027H66.89C70.2104 72.9027 72.9044 70.2087 72.9044 66.8882V33.7836C72.9044 33.132 72.8042 32.493 72.5912 31.879ZM12.7597 33.7836C12.7597 33.5705 12.7972 33.3575 12.8599 33.1445L19.2002 14.1237C19.4758 13.3093 20.2402 12.7579 21.1047 12.7579H38.8224V33.8086H12.7597V33.7836ZM68.8948 66.8882C68.8948 67.9909 67.9926 68.8931 66.89 68.8931H14.7645C13.6618 68.8931 12.7597 67.9909 12.7597 66.8882V37.8183H68.8948V66.8882ZM68.8948 33.8086H42.832V12.7579H60.5497C61.4143 12.7579 62.1786 13.3093 62.4543 14.1237L68.7945 33.1445C68.8572 33.345 68.8948 33.558 68.8948 33.7836V33.8086Z" fill="black" stroke="black" stroke-width="0.125302"/>
</g>
<defs>
<clipPath id="clip0_18_624">
<rect width="64.1544" height="64.1544" fill="white" transform="translate(8.75 8.74829)"/>
</clipPath>
</defs>
</svg>
