<svg width="80" height="80" viewBox="0 0 80 80" fill="none" xmlns="http://www.w3.org/2000/svg">
<path d="M39.9305 70.9555C39.9305 70.9555 4.8175 51.2923 4.8175 27.4154C4.81822 23.1953 6.2805 19.1057 8.95572 15.8419C11.631 12.5781 15.354 10.3416 19.4919 9.51254C23.6297 8.68352 27.927 9.31319 31.6531 11.2945C35.3792 13.2758 38.3041 16.4864 39.9305 20.3806C41.5569 16.4864 44.4817 13.2758 48.2078 11.2945C51.9339 9.3132 56.2311 8.68352 60.369 9.51254C64.5069 10.3416 68.2299 12.5781 70.9052 15.8419C73.5804 19.1057 75.0427 23.1953 75.0434 27.4154C75.0434 51.2923 39.9305 70.9555 39.9305 70.9555Z" stroke="black" stroke-width="4.38734" stroke-linecap="round" stroke-linejoin="round"/>
</svg>
