<svg width="24" height="24" viewBox="0 0 24 24" fill="none" xmlns="http://www.w3.org/2000/svg">
<g clip-path="url(#clip0_11_652)">
<path d="M10.4054 9.72976C10.5689 9.72976 10.7027 9.59598 10.7027 9.43246V8.83787C10.7027 8.67435 10.5689 8.54057 10.4054 8.54057H1.48649C1.32297 8.54057 1.18919 8.67435 1.18919 8.83787V9.43246C1.18919 9.59598 1.32297 9.72976 1.48649 9.72976H10.4054ZM23.4865 16.8649H22.5946V12.8477C22.5946 12.2233 22.3419 11.6102 21.8959 11.1679L18.778 8.05003C18.3395 7.60408 17.7264 7.35138 17.0983 7.35138H15.4595V5.51557C15.4595 4.5605 14.6345 3.78381 13.6236 3.78381H4.21419C3.20338 3.78381 2.37838 4.5605 2.37838 5.51557V6.16219H0.297297C0.133784 6.16219 0 6.29598 0 6.45949V7.05408C0 7.2176 0.133784 7.35138 0.297297 7.35138H9.21622C9.37973 7.35138 9.51351 7.2176 9.51351 7.05408V6.45949C9.51351 6.29598 9.37973 6.16219 9.21622 6.16219H3.56757V5.51557C3.56757 5.21456 3.85743 4.973 4.21419 4.973H13.6236C13.9804 4.973 14.2703 5.21456 14.2703 5.51557V16.8649H7.71487C7.1723 16.1477 6.31757 15.6757 5.35135 15.6757C4.67872 15.6757 4.06554 15.9061 3.56757 16.2852V13.2973H2.37838V18.6487C2.37838 20.2912 3.70878 21.6217 5.35135 21.6217C6.99392 21.6217 8.32432 20.2912 8.32432 18.6487C8.32432 18.4443 8.30203 18.2473 8.26486 18.0541H15.5189C15.478 18.2473 15.4595 18.4443 15.4595 18.6487C15.4595 20.2912 16.7899 21.6217 18.4324 21.6217C20.075 21.6217 21.4054 20.2912 21.4054 18.6487C21.4054 18.4443 21.3831 18.2473 21.3459 18.0541H23.4865C23.65 18.0541 23.7838 17.9203 23.7838 17.7568V17.1622C23.7838 16.9987 23.65 16.8649 23.4865 16.8649ZM5.35135 20.4325C4.36655 20.4325 3.56757 19.6335 3.56757 18.6487C3.56757 17.6639 4.36655 16.8649 5.35135 16.8649C6.33615 16.8649 7.13514 17.6639 7.13514 18.6487C7.13514 19.6335 6.33615 20.4325 5.35135 20.4325ZM15.4595 8.54057H17.0983C17.4105 8.54057 17.7189 8.66692 17.9382 8.88989L21.0561 12.0078C21.0858 12.0375 21.097 12.0784 21.123 12.1119H15.4595V8.54057ZM18.4324 20.4325C17.4476 20.4325 16.6486 19.6335 16.6486 18.6487C16.6486 17.6639 17.4476 16.8649 18.4324 16.8649C19.4172 16.8649 20.2162 17.6639 20.2162 18.6487C20.2162 19.6335 19.4172 20.4325 18.4324 20.4325ZM21.4054 16.8649H20.7959C20.2534 16.1477 19.3986 15.6757 18.4324 15.6757C17.4662 15.6757 16.6115 16.1477 16.0689 16.8649H15.4595V13.2973H21.4054V16.8649ZM9.51351 11.8108V11.2162C9.51351 11.0527 9.37973 10.9189 9.21622 10.9189H0.297297C0.133784 10.9189 0 11.0527 0 11.2162V11.8108C0 11.9744 0.133784 12.1081 0.297297 12.1081H9.21622C9.37973 12.1081 9.51351 11.9744 9.51351 11.8108Z" fill="#666666" stroke="#666666" stroke-width="0.0371622"/>
</g>
<defs>
<clipPath id="clip0_11_652">
<rect width="23.7838" height="19.027" fill="white" transform="translate(0 2.5946)"/>
</clipPath>
</defs>
</svg>
