<svg width="21" height="21" viewBox="0 0 21 21" fill="none" xmlns="http://www.w3.org/2000/svg">
<path d="M12.0368 11.1819H20.4905C20.7037 11.1819 20.877 11.0087 20.877 10.7955V9.24911C20.877 9.03591 20.7037 8.86269 20.4905 8.86269H12.0368L12.0371 0.408743C12.0371 0.195541 11.8639 0.0223141 11.6507 0.0223141L10.1039 0.0219727C9.8907 0.0219727 9.71747 0.195199 9.71747 0.408401V8.86269L1.26339 8.86234C1.05018 8.86234 0.876953 9.03557 0.876953 9.24877L0.876953 10.7952C0.876953 11.0084 1.05018 11.1816 1.26339 11.1816L9.71747 11.1819V19.6355C9.71747 19.8487 9.8907 20.022 10.1039 20.022H11.6503C11.8635 20.022 12.0368 19.8487 12.0368 19.6355V11.1819Z" fill="black"/>
</svg>
